<?xml version="1.0" encoding="UTF-8"?>
<svg xmlns="http://www.w3.org/2000/svg" xmlns:xlink="http://www.w3.org/1999/xlink" id="Group_39" data-name="Group 39" width="453.06" height="86.802" viewBox="0 0 453.06 86.802">
  <defs>
    <clipPath id="clip-path">
      <rect id="Rectangle_2" data-name="Rectangle 2" width="453.06" height="86.802" fill="none"></rect>
    </clipPath>
  </defs>
  <g id="Group_1" data-name="Group 1" clip-path="url(#clip-path)">
    <path id="Path_1" data-name="Path 1" d="M32.816,19.1,51.845,32.247a24.27,24.27,0,0,0,14.929,4.813c10.517,0,20.049-7.065,20.049-7.065L43.4,0S38.664,5.211,23.8,14.476C8.186,24.2,0,27.03,0,27.03L56.221,65.865l-2.5,1.639L34.978,54.555a24.266,24.266,0,0,0-14.929-4.811C9.532,49.743,0,56.807,0,56.807l43.42,30s4.738-5.212,19.606-14.476c15.609-9.728,23.8-12.553,23.8-12.553L30.32,20.742Z" fill="#d3002b"></path>
    <path id="Path_2" data-name="Path 2" d="M191.876,44.864c-8.245-1.068-15.594-1.277-15.778-4.277-.251-3.776,5.77-4.168,7.733-4.168,3.278,0,8.591.752,9.83,5.69h21.065c0-9.491-9-17-30.818-17.058-24.264-.068-28.374,10.651-28.374,16.737,0,11.272,8.739,14.6,27.686,16.589,7.031.738,11.507.709,11.507,4.22,0,3.595-5.348,3.968-7.6,3.968-2.055,0-7.9.012-9.8-5.9H154.44c.993,11.083,7.98,17.578,32.658,17.51,23.241-.067,29.324-9.492,29.324-16.7,0-6.983-4.771-14.079-24.546-16.609" transform="translate(-47.785 -7.751)" fill="#002a7f"></path>
    <path id="Path_3" data-name="Path 3" d="M343.506,39.982h27.84L342.535,66.894V77.623h58.508V64.769h-29.11l29.2-26.847V27.184H343.506Z" transform="translate(-105.983 -8.411)" fill="#002a7f"></path>
    <rect id="Rectangle_1" data-name="Rectangle 1" width="19.034" height="50.438" transform="translate(434.025 18.773)" fill="#002a7f"></rect>
    <path id="Path_4" data-name="Path 4" d="M569.107,27.184,548.856,44.562V27.184H529.8V77.622h19.053V59.742l18.8,17.88h25.62L565.413,51.767l28.769-24.583Z" transform="translate(-163.924 -8.411)" fill="#002a7f"></path>
    <path id="Path_5" data-name="Path 5" d="M290.637,48.339v7.947c0,6.2-2.249,10.311-10.679,10.311s-10.679-4.115-10.679-10.311v-29.1h-18.25V45.56c0,2.423.05,10.56.1,15.112.066,6.489,1.664,18.873,28.833,18.873s28.766-12.384,28.832-18.873c.046-4.552.1-12.689.1-15.112V27.184h-18.25Z" transform="translate(-77.67 -8.411)" fill="#002a7f"></path>
    <path id="Path_6" data-name="Path 6" d="M476.14,48.339v7.947c0,6.2-2.248,10.311-10.68,10.311s-10.679-4.115-10.679-10.311v-29.1h-18.25V45.56c0,2.423.051,10.56.1,15.112.068,6.489,1.666,18.873,28.832,18.873s28.766-12.384,28.834-18.873c.046-4.552.1-12.689.1-15.112V27.184H476.14Z" transform="translate(-135.066 -8.411)" fill="#002a7f"></path>
  </g>
</svg>
